<?xml version="1.0" encoding="utf-8" standalone="no"?>
<!DOCTYPE svg PUBLIC "-//W3C//DTD SVG 1.1//EN"
  "http://www.w3.org/Graphics/SVG/1.1/DTD/svg11.dtd">
<svg xmlns:xlink="http://www.w3.org/1999/xlink" width="576pt" height="576pt" viewBox="0 0 576 576" xmlns="http://www.w3.org/2000/svg" version="1.1">
 <metadata>
  <rdf:RDF xmlns:dc="http://purl.org/dc/elements/1.1/" xmlns:cc="http://creativecommons.org/ns#" xmlns:rdf="http://www.w3.org/1999/02/22-rdf-syntax-ns#">
   <cc:Work>
    <dc:type rdf:resource="http://purl.org/dc/dcmitype/StillImage"/>
    <dc:date>2025-10-26T16:18:30.923214</dc:date>
    <dc:format>image/svg+xml</dc:format>
    <dc:creator>
     <cc:Agent>
      <dc:title>Matplotlib v3.10.7, https://matplotlib.org/</dc:title>
     </cc:Agent>
    </dc:creator>
   </cc:Work>
  </rdf:RDF>
 </metadata>
 <defs>
  <style type="text/css">*{stroke-linejoin: round; stroke-linecap: butt}</style>
 </defs>
 <g id="figure_1">
  <g id="patch_1">
   <path d="M 0 576 
L 576 576 
L 576 0 
L 0 0 
z
" style="fill: #ffffff"/>
  </g>
  <g id="axes_1">
   <g id="patch_2">
    <path d="M 73.44 512.64 
L 516.96 512.64 
L 516.96 69.12 
L 73.44 69.12 
z
" style="fill: #ffffff"/>
   </g>
   <g id="LineCollection_1">
    <path d="M 93.6 492.48 
L 291.168 173.952 
" clip-path="url(#p1b9142e3da)" style="fill: none; stroke: #808080; stroke-opacity: 0.7; stroke-width: 0.5"/>
    <path d="M 93.6 492.48 
L 496.8 492.48 
" clip-path="url(#p1b9142e3da)" style="fill: none; stroke: #808080; stroke-opacity: 0.7; stroke-width: 0.5"/>
    <path d="M 93.6 492.48 
L 93.6 89.28 
" clip-path="url(#p1b9142e3da)" style="fill: none; stroke: #808080; stroke-opacity: 0.7; stroke-width: 0.5"/>
    <path d="M 93.6 492.48 
L 97.632 246.528 
" clip-path="url(#p1b9142e3da)" style="fill: none; stroke: #808080; stroke-opacity: 0.7; stroke-width: 0.5"/>
    <path d="M 496.8 89.28 
L 496.8 492.48 
" clip-path="url(#p1b9142e3da)" style="fill: none; stroke: #808080; stroke-opacity: 0.7; stroke-width: 0.5"/>
    <path d="M 496.8 89.28 
L 291.168 173.952 
" clip-path="url(#p1b9142e3da)" style="fill: none; stroke: #808080; stroke-opacity: 0.7; stroke-width: 0.5"/>
    <path d="M 496.8 89.28 
L 93.6 89.28 
" clip-path="url(#p1b9142e3da)" style="fill: none; stroke: #808080; stroke-opacity: 0.7; stroke-width: 0.5"/>
    <path d="M 496.8 492.48 
L 291.168 173.952 
" clip-path="url(#p1b9142e3da)" style="fill: none; stroke: #808080; stroke-opacity: 0.7; stroke-width: 0.5"/>
    <path d="M 93.6 89.28 
L 291.168 173.952 
" clip-path="url(#p1b9142e3da)" style="fill: none; stroke: #808080; stroke-opacity: 0.7; stroke-width: 0.5"/>
    <path d="M 93.6 89.28 
L 97.632 246.528 
" clip-path="url(#p1b9142e3da)" style="fill: none; stroke: #808080; stroke-opacity: 0.7; stroke-width: 0.5"/>
    <path d="M 291.168 173.952 
L 97.632 246.528 
" clip-path="url(#p1b9142e3da)" style="fill: none; stroke: #808080; stroke-opacity: 0.7; stroke-width: 0.5"/>
   </g>
   <g id="LineCollection_2">
    <path d="M 93.6 492.48 
L 291.168 173.952 
" clip-path="url(#p1b9142e3da)" style="fill: none; stroke: #008000; stroke-width: 2.5"/>
    <path d="M 291.168 173.952 
L 496.8 89.28 
" clip-path="url(#p1b9142e3da)" style="fill: none; stroke: #008000; stroke-width: 2.5"/>
   </g>
   <g id="matplotlib.axis_1">
    <g id="xtick_1"/>
    <g id="xtick_2"/>
    <g id="xtick_3"/>
    <g id="xtick_4"/>
    <g id="xtick_5"/>
    <g id="xtick_6"/>
   </g>
   <g id="matplotlib.axis_2">
    <g id="ytick_1"/>
    <g id="ytick_2"/>
    <g id="ytick_3"/>
    <g id="ytick_4"/>
    <g id="ytick_5"/>
    <g id="ytick_6"/>
   </g>
   <g id="PathCollection_1">
    <defs>
     <path id="C0_0_84e53e331b" d="M 0 4.1833 
C 1.109424 4.1833 2.173559 3.742521 2.95804 2.95804 
C 3.742521 2.173559 4.1833 1.109424 4.1833 -0 
C 4.1833 -1.109424 3.742521 -2.173559 2.95804 -2.95804 
C 2.173559 -3.742521 1.109424 -4.1833 0 -4.1833 
C -1.109424 -4.1833 -2.173559 -3.742521 -2.95804 -2.95804 
C -3.742521 -2.173559 -4.1833 -1.109424 -4.1833 0 
C -4.1833 1.109424 -3.742521 2.173559 -2.95804 2.95804 
C -2.173559 3.742521 -1.109424 4.1833 0 4.1833 
z
"/>
    </defs>
    <g clip-path="url(#p1b9142e3da)">
     <use xlink:href="#C0_0_84e53e331b" x="93.6" y="492.48" style="fill: #ff0000; stroke: #ff0000"/>
    </g>
    <g clip-path="url(#p1b9142e3da)">
     <use xlink:href="#C0_0_84e53e331b" x="496.8" y="89.28" style="fill: #ff0000; stroke: #ff0000"/>
    </g>
    <g clip-path="url(#p1b9142e3da)">
     <use xlink:href="#C0_0_84e53e331b" x="496.8" y="492.48" style="fill: #ff0000; stroke: #ff0000"/>
    </g>
    <g clip-path="url(#p1b9142e3da)">
     <use xlink:href="#C0_0_84e53e331b" x="93.6" y="89.28" style="fill: #ff0000; stroke: #ff0000"/>
    </g>
    <g clip-path="url(#p1b9142e3da)">
     <use xlink:href="#C0_0_84e53e331b" x="291.168" y="173.952" style="fill: #0000ff; stroke: #0000ff"/>
    </g>
    <g clip-path="url(#p1b9142e3da)">
     <use xlink:href="#C0_0_84e53e331b" x="97.632" y="246.528" style="fill: #0000ff; stroke: #0000ff"/>
    </g>
   </g>
   <g id="patch_3">
    <path d="M 73.44 512.64 
L 73.44 69.12 
" style="fill: none; stroke: #000000; stroke-width: 0.8; stroke-linejoin: miter; stroke-linecap: square"/>
   </g>
   <g id="patch_4">
    <path d="M 516.96 512.64 
L 516.96 69.12 
" style="fill: none; stroke: #000000; stroke-width: 0.8; stroke-linejoin: miter; stroke-linecap: square"/>
   </g>
   <g id="patch_5">
    <path d="M 73.44 512.64 
L 516.96 512.64 
" style="fill: none; stroke: #000000; stroke-width: 0.8; stroke-linejoin: miter; stroke-linecap: square"/>
   </g>
   <g id="patch_6">
    <path d="M 73.44 69.12 
L 516.96 69.12 
" style="fill: none; stroke: #000000; stroke-width: 0.8; stroke-linejoin: miter; stroke-linecap: square"/>
   </g>
  </g>
 </g>
 <defs>
  <clipPath id="p1b9142e3da">
   <rect x="73.44" y="69.12" width="443.52" height="443.52"/>
  </clipPath>
 </defs>
</svg>
